# xmcd CD database file
#
# Track frame offsets:
#	150
#	26593
#	41715
#	65555
#	83418
#	109685
#	138205
#	157270
#	181325
#	198538
#
# Disc length: 2908 seconds
#
# Revision: 0
# Processed by: cddbd v1.5.2PL0 Copyright (c) Steve Scherf et al.
# Submitted via: CDex 1.70beta1
#
DISCID=840b5a0a
DTITLE=Kenny Davern Big Three - Playing For Kicks
DYEAR=1900
DGENRE=Jazz
TTITLE0=You're Luky To Me
TTITLE1=Drop Me Off At Harlem
TTITLE2=Black And Blue
TTITLE3=Willie The Weeper
TTITLE4=Bye Bye Blues
TTITLE5=Sometimes I'm Happy
TTITLE6=New Orleans
TTITLE7=Lollaby Of The Leaves
TTITLE8=Black Beauty
TTITLE9=Dinah
EXTD=
EXTT0=
EXTT1=
EXTT2=
EXTT3=
EXTT4=
EXTT5=
EXTT6=
EXTT7=
EXTT8=
EXTT9=
PLAYORDER=
